<svg width="252" height="241" viewBox="0 0 252 241" fill="none" xmlns="http://www.w3.org/2000/svg">
<path d="M224.125 241L224.125 0L230.125 0L230.125 241H224.125ZM242.125 241L242.125 0L245.125 0L245.125 241H242.125ZM248.125 241L248.125 0L251.125 0L251.125 241H248.125Z" fill="black"/>
<path d="M210.117 241L210.117 0L213.117 0L213.117 241H210.117ZM222.117 241L222.117 0L234.117 0L234.117 241H222.117ZM237.117 241L237.117 0L240.117 0L240.117 241H237.117Z" fill="black"/>
<path d="M196.109 241L196.109 0L199.109 0L199.109 241H196.109ZM211.109 241L211.109 0L217.109 0L217.109 241H211.109ZM220.109 241L220.109 0L223.109 0L223.109 241H220.109Z" fill="black"/>
<path d="M182.102 241L182.102 0L185.102 0L185.102 241H182.102ZM191.102 241L191.102 0L197.102 0L197.102 241H191.102ZM209.102 241L209.102 0L212.102 0L212.102 241H209.102Z" fill="black"/>
<path d="M168.094 241L168.094 0L171.094 0L171.094 241H168.094ZM174.094 241L174.094 0L186.094 0L186.094 241H174.094ZM192.094 241L192.094 0L195.094 0L195.094 241H192.094Z" fill="black"/>
<path d="M154.086 241L154.086 0L157.086 0L157.086 241H154.086ZM163.086 241L163.086 0L166.086 0L166.086 241H163.086ZM169.086 241L169.086 0L175.086 0L175.086 241H169.086Z" fill="black"/>
<path d="M140.078 241L140.078 0L143.078 0L143.078 241H140.078ZM146.078 241L146.078 0L152.078 0L152.078 241H146.078ZM164.078 241L164.078 0L167.078 0L167.078 241H164.078Z" fill="black"/>
<path d="M126.07 241L126.07 0L132.07 0L132.07 241H126.07ZM135.07 241L135.07 0L141.07 0L141.07 241H135.07ZM147.07 241L147.07 0L153.07 0L153.07 241H147.07Z" fill="black"/>
<path d="M112.062 241L112.062 0L115.062 0L115.062 241H112.062ZM121.062 241L121.062 0L133.062 0L133.062 241H121.062ZM136.062 241L136.062 0L139.062 0L139.062 241H136.062Z" fill="black"/>
<path d="M98.0547 241L98.0547 0L101.055 0L101.055 241H98.0547ZM104.055 241L104.055 0L116.055 0L116.055 241H104.055ZM122.055 241L122.055 0L125.055 0L125.055 241H122.055Z" fill="black"/>
<path d="M84.0469 241L84.0469 0L87.0469 0L87.0469 241H84.0469ZM93.0469 241L93.0469 0L96.0469 0L96.0469 241H93.0469ZM99.0469 241L99.0469 0L105.047 0L105.047 241H99.0469Z" fill="black"/>
<path d="M70.0391 241L70.0391 0L73.0391 0L73.0391 241H70.0391ZM76.0391 241L76.0391 0L82.0391 0L82.0391 241H76.0391ZM94.0391 241L94.0391 0L97.0391 0L97.0391 241H94.0391Z" fill="black"/>
<path d="M56.0312 241L56.0312 0L62.0312 0L62.0312 241H56.0312ZM65.0312 241L65.0312 0L71.0312 0L71.0312 241H65.0312ZM77.0312 241L77.0312 0L83.0312 0L83.0312 241H77.0312Z" fill="black"/>
<path d="M42.0234 241L42.0234 0L45.0234 0L45.0234 241H42.0234ZM48.0234 241L48.0234 0L51.0234 0L51.0234 241H48.0234ZM57.0234 241L57.0234 0L69.0234 0L69.0234 241H57.0234Z" fill="black"/>
<path d="M28.0156 241L28.0156 0L31.0156 0L31.0156 241H28.0156ZM40.0156 241L40.0156 0L52.0156 0L52.0156 241H40.0156ZM55.0156 241L55.0156 0L58.0156 0L58.0156 241H55.0156Z" fill="black"/>
<path d="M14.0078 241L14.0078 0L17.0078 0L17.0078 241H14.0078ZM23.0078 241L23.0078 0L35.0078 0L35.0078 241H23.0078ZM38.0078 241L38.0078 0L41.0078 0L41.0078 241H38.0078Z" fill="black"/>
<path d="M0 241L0 0L3 0L3 241H0ZM6 241L6 0L18 0L18 241H6ZM24 241L24 0L27 0L27 241H24Z" fill="black"/>
</svg>
