<svg width="418" height="572" viewBox="0 0 418 572" fill="none" xmlns="http://www.w3.org/2000/svg">
<path d="M150.857 564.816L87.102 505.551L96.9796 462.449L87.102 416.653L80.3673 382.082L49.8367 343.469L19.3061 281.061V247.837L34.5714 211.918L19.3061 177.347L0 153.551L12.1224 102.367L49.8367 69.1429L118.98 49.8367L125.714 0H190.816L240.653 27.8367L282.408 43.102L303.061 91.5918L327.755 81.7143H360.98L418 109.551L406.776 153.551L379.388 203.388L343.02 288.245L360.98 333.592L282.408 416.653L257.265 462.449L240.653 517.673L206.082 572L150.857 564.816Z" fill="white"/>
</svg>
