<svg width="1440" height="541" viewBox="0 0 1440 541" fill="none" xmlns="http://www.w3.org/2000/svg">
<path d="M-42.5 515.5C-42.0909 515.079 108.695 426.048 199.311 370.638C289.926 315.229 470.736 204.844 593.947 135.339C717.157 65.8347 777.291 40.5557 806.223 30.2717C835.156 19.9878 831.065 25.4649 816.277 40.5046C801.488 55.5443 776.126 79.9807 716.426 121.851C656.727 163.721 563.458 222.284 518.275 252.452C473.091 282.621 478.818 282.621 542.311 267.875C605.803 253.129 726.888 223.637 809.105 206.759C891.322 189.881 931.002 186.51 951.443 185.616C971.885 184.723 971.885 186.408 968.203 190.857C964.521 195.307 957.158 202.469 918.594 227.646C880.03 252.823 810.488 295.797 769.754 322.78C729.02 349.764 719.203 359.454 713.736 366.342C708.269 373.23 707.451 377.022 710.711 380.871C713.972 384.72 721.335 388.512 736.991 392.151C752.647 395.789 776.374 399.16 831.549 399.843C886.724 400.526 1349.49 433.879 1438 431.709" stroke="#161616" stroke-width="50" stroke-linecap="round"/>
</svg>
