<svg width="1168" height="823" viewBox="0 0 1168 823" fill="none" xmlns="http://www.w3.org/2000/svg">
<path d="M17 327.396C19.2268 326.505 21.4535 325.615 74.9293 293.759C128.405 261.902 233.063 199.108 332.626 148.723C432.188 98.3373 523.485 62.2638 575.861 42.3445C628.237 22.4252 638.926 19.7531 649.938 17" stroke="black" stroke-width="33" stroke-linecap="round"/>
<path d="M212.684 214.034C212.239 214.925 211.794 215.816 211.342 216.942C210.89 218.069 210.444 219.405 203.98 259.062C197.516 298.718 185.046 376.655 172.198 456.953" stroke="black" stroke-width="33" stroke-linecap="round"/>
<path d="M308.502 447.506C305.83 439.49 304.008 432.243 303.556 414.604C303.184 400.088 303.995 374.253 306.228 351.148C308.462 328.044 312.47 308.449 316.539 295.459C322.65 275.952 334.535 264.926 347.093 254.15C370.806 233.8 397.465 238.326 407.444 242.577C412.271 244.633 414.658 249.554 416.007 253.367C417.436 257.404 415.576 263.036 410.886 269.764C407.889 274.063 400.407 277.382 377.815 286.35C355.224 295.318 316.924 309.123 291.849 317.572C266.774 326.02 256.086 328.692 245.236 332.072C234.385 335.453 223.697 339.461 218.859 341.749C214.021 344.036 215.357 344.482 218.494 344.934C221.632 345.386 226.531 345.831 250.654 352.073C274.777 358.314 317.976 370.339 346.465 379.651C374.954 388.963 387.424 395.198 406.095 405.535C424.766 415.873 449.26 430.124 474.497 444.807" stroke="black" stroke-width="33" stroke-linecap="round"/>
<path d="M539.86 312C534.516 313.336 529.172 314.672 513.726 319.591C498.28 324.51 472.895 332.972 455.81 339.335C430.358 348.814 417.996 357.844 410.58 365.699C407.247 369.228 406.282 373.108 406.039 376.279C405.796 379.45 406.687 382.123 408.927 384.167C413.887 388.694 424.19 388.924 444.096 385.361C458.427 382.796 480.48 374.673 502.862 365.881C525.244 357.088 547.067 346.845 560.535 340.01C574.004 333.174 578.457 330.057 579.193 332.236C579.928 334.416 576.811 341.987 571.864 359.025C566.918 376.063 560.238 402.339 556.574 418.769C552.91 435.2 552.465 440.99 552.006 442.906" stroke="black" stroke-width="33" stroke-linecap="round"/>
<path d="M322.86 671C317.516 672.336 312.172 673.672 296.726 678.591C281.28 683.51 255.895 691.972 238.81 698.335C213.358 707.814 200.996 716.844 193.58 724.699C190.247 728.228 189.282 732.108 189.039 735.279C188.796 738.45 189.687 741.123 191.927 743.167C196.887 747.694 207.19 747.924 227.096 744.361C241.427 741.796 263.48 733.673 285.862 724.881C308.244 716.088 330.067 705.845 343.535 699.01C357.004 692.174 361.457 689.057 362.193 691.236C362.928 693.416 359.811 700.987 354.864 718.025C349.918 735.063 343.238 761.339 339.574 777.769C335.91 794.2 335.465 799.99 335.006 801.906" stroke="black" stroke-width="33" stroke-linecap="round"/>
<path d="M692.283 304.961C689.961 303.639 674.445 294.806 649.818 281.3C624.054 267.17 607.739 267.161 599.158 267.695C595.467 267.925 593.452 270.38 591.989 272.924C590.525 275.468 589.757 278.618 590.415 282.89C591.073 287.163 593.181 292.462 597.893 300.075C602.605 307.688 609.857 317.453 632.787 338.278C655.717 359.103 694.105 390.692 714.878 408.814C735.651 426.936 737.645 430.634 738.122 433.506C738.599 436.379 737.497 438.314 735.992 440.058C734.487 441.802 732.611 443.297 729.269 443.739C721.242 444.802 707.824 440.601 679.398 430.863C659.427 423.377 628.196 410.723 610.339 403.711C592.482 396.698 588.945 395.709 585.301 394.691" stroke="black" stroke-width="33" stroke-linecap="round"/>
<path d="M486.27 654.468C484.185 652.795 470.26 641.621 448.076 624.393C424.87 606.369 408.761 603.782 400.203 602.954C396.523 602.598 394.145 604.703 392.298 606.984C390.45 609.265 389.194 612.254 389.169 616.576C389.143 620.899 390.387 626.465 393.837 634.727C397.287 642.988 402.905 653.777 422.256 677.964C441.607 702.151 474.52 739.409 492.168 760.586C509.816 781.763 511.202 785.73 511.218 788.642C511.235 791.553 509.842 793.29 508.08 794.774C506.318 796.259 504.229 797.438 500.859 797.347C492.766 797.128 480.18 790.859 453.65 776.752C435.113 766.204 406.274 748.773 389.749 739.027C373.225 729.28 369.888 727.745 366.451 726.164" stroke="black" stroke-width="33" stroke-linecap="round"/>
<path d="M720 155C720.445 158.563 720.891 162.126 723.792 179.326C726.694 196.526 732.038 227.255 735.236 267.579C738.435 307.904 739.326 356.892 741.12 389.477C742.915 422.062 745.587 436.759 746.964 445.22C748.341 453.682 748.341 455.463 748.341 457.299" stroke="black" stroke-width="33" stroke-linecap="round"/>
<path d="M748.059 298.783C749.539 297.596 755.479 292.828 765.914 285.047C775.644 277.792 812.754 259.958 859.459 238.648C874.467 231.8 874.355 236.929 861.398 263.709C848.441 290.49 823.289 339.768 809.963 366.934C796.636 394.101 795.896 397.664 798.474 398.905C806.97 398.959 834.52 391.205 889.217 377.747C922.461 370.821 966.846 363.696 1017.06 354.556" stroke="black" stroke-width="33" stroke-linecap="round"/>
<path d="M552.396 639.878C553.875 638.691 559.816 633.923 570.251 626.142C579.981 618.887 617.091 601.053 663.796 579.742C678.804 572.894 678.692 578.024 665.735 604.804C652.778 631.584 627.626 680.862 614.3 708.029C600.973 735.196 600.233 738.758 602.811 740C611.307 740.054 638.857 732.299 693.554 718.842C726.798 711.915 771.183 704.791 821.396 695.651" stroke="black" stroke-width="33" stroke-linecap="round"/>
<path d="M524 493C524.445 496.563 524.891 500.126 527.792 517.326C530.694 534.526 536.038 565.255 539.236 605.579C542.435 645.904 543.326 694.892 545.12 727.477C546.915 760.062 549.587 774.759 550.964 783.22C552.341 791.682 552.341 793.463 552.341 795.299" stroke="black" stroke-width="33" stroke-linecap="round"/>
<path d="M56 564.212C56.4873 564.212 56.9746 564.212 94.0174 552.516C131.06 540.821 204.643 517.43 280.457 493.331" stroke="black" stroke-width="33" stroke-linecap="round"/>
<path d="M86.6041 686.881C87.0914 686.881 87.5787 686.881 124.621 675.186C161.664 663.49 235.248 640.1 311.061 616" stroke="black" stroke-width="33" stroke-linecap="round"/>
<path d="M101.777 553.875C102.265 556.799 102.752 559.723 112.018 600.701C121.284 641.679 139.315 720.623 157.892 801.959" stroke="black" stroke-width="33" stroke-linecap="round"/>
<path d="M720 584L749.594 794.574" stroke="black" stroke-width="33" stroke-linecap="round"/>
<path d="M808.334 598.061C808.132 598.505 807.931 598.949 811.586 620.407C815.241 641.864 822.757 684.322 828.45 711.031C836.281 747.768 846.672 766.127 854.973 778.812C857.741 783.042 859.188 781.621 866.692 740.861C874.197 700.101 888.127 619.745 895.362 577.039C902.597 534.333 902.714 531.712 902.251 530.927C901.464 529.592 897.007 537.119 888.07 549.744C873.676 570.078 855.716 585.4 843.556 594.993C837.521 599.335 831.758 602.609 827.097 605.669C822.436 608.729 819.052 611.476 815.565 614.306" stroke="black" stroke-width="33" stroke-linecap="round"/>
<path d="M931 571C931.486 577.946 931.973 584.892 936.357 613.096C940.741 641.301 949.008 690.553 953.511 720.661C958.013 750.77 958.499 760.241 959 770" stroke="black" stroke-width="33" stroke-linecap="round"/>
<path d="M945 593.104C946.166 593.104 959.597 587.114 999.155 572.423C1025.64 562.586 1066.12 552.491 1082.18 557.187C1098.25 561.884 1088.92 582.848 1081.19 607.5C1073.47 632.151 1067.64 659.854 1063.76 681.238C1059.88 702.622 1058.13 716.848 1057.23 729.417C1056.33 741.987 1056.33 752.469 1056.33 761" stroke="black" stroke-width="33" stroke-linecap="round"/>
<path d="M462.926 257.872C464.895 257.38 466.864 256.888 469.848 256.142C472.832 255.396 476.77 254.411 491.353 251.196C505.936 247.981 531.044 242.566 556.913 236.986" stroke="black" stroke-width="33" stroke-linecap="round"/>
<path d="M953.746 509.996C958.669 509.504 963.592 509.011 969.821 508.019C976.049 507.027 983.434 505.55 1013.58 502.328C1043.72 499.105 1096.4 494.182 1150.67 489.11" stroke="black" stroke-width="33" stroke-linecap="round"/>
</svg>
